<?xml version="1.0" encoding="utf-8"?>
<!-- Generator: Adobe Illustrator 17.1.0, SVG Export Plug-In . SVG Version: 6.00 Build 0)  -->
<!DOCTYPE svg PUBLIC "-//W3C//DTD SVG 1.1//EN" "http://www.w3.org/Graphics/SVG/1.1/DTD/svg11.dtd">
<svg version="1.1" id="Layer_1" xmlns="http://www.w3.org/2000/svg" xmlns:xlink="http://www.w3.org/1999/xlink" x="0px" y="0px"
	 viewBox="261 381 90 30" enable-background="new 261 381 90 30" xml:space="preserve">
<path fill="#FFFFFF" d="M275.6,395.9h4.4c-0.1,1.3-0.5,2.2-1.2,2.8c-0.6,0.5-1.4,0.8-2.4,1c-1,0.2-2.4,0.3-4.3,0.3v-2.8
	c1,0,1.7,0,2.2-0.1c0.5-0.1,0.8-0.2,1-0.4C275.4,396.5,275.5,396.2,275.6,395.9 M272.1,387.5L272.1,387.5c2.1,0,3.4,0.1,4.2,0.2
	c1.4,0.2,2.4,0.8,3,1.6c0.5,0.8,0.8,2.2,0.8,4.2c0,0.2,0,0.6,0,1.2h-8v-2.4h3.6c0-0.5-0.1-0.8-0.1-1c0-0.2-0.1-0.3-0.3-0.5
	c-0.4-0.4-1.4-0.6-3.1-0.6l-0.1,0V387.5L272.1,387.5z M272.1,399.9c-0.1,0-0.2,0-0.4,0c-1.7,0-3-0.1-3.9-0.2
	c-0.9-0.2-1.6-0.5-2.2-0.9c-0.6-0.4-1-1-1.2-1.7c-0.2-0.7-0.3-1.8-0.3-3.3c0-1.1,0-2,0.1-2.5c0.1-0.6,0.2-1.1,0.5-1.5
	c0.5-0.9,1.3-1.6,2.6-1.8c1-0.2,2.7-0.4,4.8-0.4v2.7c-1.4,0-2.3,0.1-2.8,0.4c-0.5,0.3-0.7,0.8-0.8,1.6h3.6v2.4h-3.6
	c0,0.6,0,1,0.1,1.3c0.1,0.3,0.2,0.5,0.5,0.6c0.4,0.3,1.4,0.5,3,0.5h0V399.9z"/>
<path fill="#FFFFFF" d="M314.7,399.9v-2.8c1,0,1.7,0,2.2-0.1c0.5-0.1,0.8-0.2,1-0.4c0.1-0.1,0.2-0.4,0.3-0.8h4.4
	c-0.1,1.3-0.5,2.2-1.2,2.8c-0.6,0.5-1.4,0.8-2.4,1C318.1,399.8,316.6,399.9,314.7,399.9 M314.7,394.7v-2.4h3.6c0-0.5,0-0.8-0.1-1
	c0-0.2-0.1-0.3-0.3-0.5c-0.4-0.4-1.4-0.6-3.1-0.6l-0.1,0v-2.7l0.1,0c2,0,3.3,0.1,4.2,0.2c1.4,0.2,2.4,0.8,3,1.6
	c0.5,0.8,0.8,2.2,0.8,4.2c0,0.2,0,0.6,0,1.2L314.7,394.7L314.7,394.7z M282.1,381.4h17.6v3.9h-12.5v4.1h11.9v3.8h-11.9v6.4h-5.1
	V381.4z M314.7,387.5v2.7c-1.4,0-2.3,0.1-2.8,0.4c-0.5,0.3-0.7,0.8-0.8,1.6h3.6v2.4h-3.6c0,0.6,0,1,0.1,1.3c0.1,0.3,0.2,0.5,0.5,0.6
	c0.4,0.3,1.4,0.5,3,0.5h0v2.8c-0.1,0-0.2,0-0.4,0c-1.7,0-3-0.1-3.9-0.2c-0.9-0.2-1.6-0.5-2.2-0.9c-0.6-0.4-1-1-1.2-1.7
	c-0.2-0.7-0.3-1.8-0.3-3.3c0-1.1,0-2,0.1-2.5c0.1-0.6,0.2-1.1,0.5-1.5c0.5-0.9,1.3-1.6,2.6-1.8C310.9,387.7,312.5,387.5,314.7,387.5
	 M300.7,381.4h4.4v18.2h-4.4V381.4z"/>
<path fill="#FFFFFF" d="M328.5,387.7c1,0.9,2,1.9,3,2.9c1-1,1.9-1.9,2.8-2.9h5.7c-1.9,1.9-3.7,3.8-5.6,5.8c2.8,3,13,13.8,15.8,16.8
	h-6.1c-1.8-1.9-10.9-11.7-12.7-13.7c-1,1-1.9,2-2.9,3h-3h-3c1.9-1.9,3.8-3.9,5.7-5.8c-1.9-2-3.8-4-5.7-6.1L328.5,387.7L328.5,387.7z
	"/>
<g>
	<path fill="#FFFFFF" d="M273.4,403.9h-2.1c0-0.1,0-0.1,0-0.2c0-0.5-0.2-0.8-0.4-1c-0.2-0.1-0.8-0.2-1.6-0.2c-1,0-1.7,0.1-2,0.2
		c-0.3,0.2-0.5,0.5-0.5,1c0,0.6,0.1,0.9,0.4,1.1c0.3,0.1,1.1,0.2,2.5,0.3c1.7,0.1,2.7,0.3,3.2,0.6c0.5,0.3,0.7,1,0.7,2
		c0,1.2-0.3,2-0.9,2.4c-0.6,0.4-1.8,0.5-3.8,0.5c-1.8,0-2.9-0.2-3.5-0.5c-0.6-0.4-0.9-1.1-0.9-2.2l0-0.3h2.1l0,0.2
		c0,0.6,0.1,1,0.4,1.2c0.3,0.1,1,0.2,2.2,0.2c0.9,0,1.6-0.1,1.8-0.3c0.3-0.2,0.4-0.6,0.4-1.2c0-0.4-0.1-0.7-0.3-0.9
		c-0.2-0.1-0.6-0.2-1.3-0.3l-1.2-0.1c-1.8-0.1-2.9-0.3-3.4-0.6c-0.5-0.3-0.7-1-0.7-2.1c0-1.1,0.3-1.8,0.9-2.2
		c0.6-0.4,1.8-0.5,3.5-0.5c1.7,0,2.8,0.2,3.4,0.5c0.6,0.3,0.9,1,0.9,1.9L273.4,403.9L273.4,403.9z"/>
	<path fill="#FFFFFF" d="M284.1,401.2l-4.1,5.7v3.5h-2.1V407l-4-5.7h2.5l1.7,2.5c0.1,0.1,0.3,0.4,0.5,0.8l0.2,0.4l0.2,0.4h0.1
		l0.2-0.4l0.2-0.4c0.2-0.3,0.4-0.6,0.5-0.8l1.7-2.5H284.1z"/>
	<path fill="#FFFFFF" d="M293.3,403.9h-2.1c0-0.1,0-0.1,0-0.2c0-0.5-0.2-0.8-0.4-1c-0.2-0.1-0.8-0.2-1.6-0.2c-1,0-1.7,0.1-2,0.2
		c-0.3,0.2-0.5,0.5-0.5,1c0,0.6,0.1,0.9,0.4,1.1c0.3,0.1,1.1,0.2,2.5,0.3c1.7,0.1,2.7,0.3,3.2,0.6c0.5,0.3,0.7,1,0.7,2
		c0,1.2-0.3,2-0.9,2.4c-0.6,0.4-1.8,0.5-3.8,0.5c-1.8,0-2.9-0.2-3.5-0.5c-0.6-0.4-0.9-1.1-0.9-2.2l0-0.3h2.1l0,0.2
		c0,0.6,0.1,1,0.4,1.2c0.3,0.1,1,0.2,2.2,0.2c0.9,0,1.6-0.1,1.8-0.3c0.3-0.2,0.4-0.6,0.4-1.2c0-0.4-0.1-0.7-0.3-0.9
		c-0.2-0.1-0.6-0.2-1.3-0.3l-1.2-0.1c-1.8-0.1-2.9-0.3-3.4-0.6c-0.5-0.3-0.7-1-0.7-2.1c0-1.1,0.3-1.8,0.9-2.2
		c0.6-0.4,1.8-0.5,3.5-0.5c1.7,0,2.8,0.2,3.4,0.5c0.6,0.3,0.9,1,0.9,1.9L293.3,403.9L293.3,403.9z"/>
	<path fill="#FFFFFF" d="M299.5,402.8v7.7h-2.1v-7.7h-3.2v-1.6h8.7v1.6H299.5z"/>
	<path fill="#FFFFFF" d="M305.8,402.7v2.4h5.2v1.3h-5.2v2.6h5.6v1.5h-7.7v-9.3h7.6v1.5L305.8,402.7L305.8,402.7z"/>
	<path fill="#FFFFFF" d="M326,401.2v9.3h-2.1v-5.1c0-0.4,0-0.9,0-1.4l0-0.7l0-0.7h-0.1l-0.3,0.6l-0.2,0.6c-0.2,0.6-0.4,1-0.5,1.3
		l-2.5,5.2h-1.9l-2.5-5.2c-0.1-0.3-0.3-0.7-0.5-1.3l-0.3-0.6l-0.3-0.6h-0.1l0,0.7l0,0.7c0,0.5,0,1,0,1.4v5.1h-2.1v-9.3h3.4l2,4.3
		c0.1,0.3,0.3,0.7,0.5,1.3l0.2,0.6l0.3,0.6h0.1l0.2-0.6l0.2-0.6c0.2-0.5,0.4-1,0.5-1.3l2-4.3L326,401.2L326,401.2z"/>
	<path fill="#FFFFFF" d="M336.2,403.9h-2.1c0-0.1,0-0.1,0-0.2c0-0.5-0.2-0.8-0.4-1c-0.2-0.1-0.8-0.2-1.6-0.2c-1,0-1.7,0.1-2,0.2
		c-0.3,0.2-0.5,0.5-0.5,1c0,0.6,0.1,0.9,0.4,1.1c0.3,0.1,1.1,0.2,2.5,0.3c1.7,0.1,2.7,0.3,3.2,0.6c0.5,0.3,0.7,1,0.7,2
		c0,1.2-0.3,2-0.9,2.4c-0.6,0.4-1.8,0.5-3.8,0.5c-1.8,0-2.9-0.2-3.5-0.5s-0.9-1.1-0.9-2.2l0-0.3h2.1l0,0.2c0,0.6,0.1,1,0.4,1.2
		c0.3,0.1,1,0.2,2.2,0.2c0.9,0,1.6-0.1,1.8-0.3c0.3-0.2,0.4-0.6,0.4-1.2c0-0.4-0.1-0.7-0.3-0.9c-0.2-0.1-0.6-0.2-1.3-0.3l-1.2-0.1
		c-1.8-0.1-2.9-0.3-3.4-0.6c-0.5-0.3-0.7-1-0.7-2.1c0-1.1,0.3-1.8,0.9-2.2c0.6-0.4,1.8-0.5,3.5-0.5c1.7,0,2.8,0.2,3.4,0.5
		c0.6,0.3,0.9,1,0.9,1.9L336.2,403.9L336.2,403.9z"/>
</g>
</svg>
